/* XPM */
static char *cfc5217f567345568a48fcbe276afb4dzNGONGtwBfUGkQ49[] = {
/* columns rows colors chars-per-pixel */
"32 32 7 1 ",
"  c None",
". c #0C0F2A",
"X c #FEE1B8",
"o c #D4C692",
"O c #303843",
"+ c #B55945",
"@ c white",
/* pixels */
"     ......                     ",
"    .XXXXXX.....                ",
"    .ooXXXXXXXXX................",
"    .oooXXXXXXXXXXXXXXXXXXXXXXXX",
"    .oooXooXXXXXXXXXXXXXXXXXXXXX",
"    .oOoXXXoooXXXXXXXXXXXXXXXXXX",
"    .oOoXXXXXooooooXXXXXXXXXXXoo",
"    .oOoXXXXXXXooooooooooooooooo",
"    .oOoXXXXXXXXXXoooooooooooooo",
"    .oOoXXXXXXXXXXXXXooooooooooo",
"    .oOoXXXXXXXXXXXXXXXXXooooooX",
"   .ooOoXXoXXXXXXXXXXXXXXXXXXXXX",
"   .ooOoXXXXoooXXXXXXXXXXXXXXXXX",
"   .oOOoXXXXXXoooooXXXXXXXXXXXXX",
"   .oOOooXXXXXXXXXooooXooXXXXXXX",
"   .oOOooXXXXXXXXXXXXXXXXXXXXXXX",
"...ooOOooXXXXXXXXXXXXXXXXXXXXXXX",
"++.ooOOooXXXXXXXXXXXXXXXXXXXXXXX",
"++.ooOOooXXXXXXXXXXXXXXXXXXXXXXX",
"++ooOOOooXXXXXXXXXXXXXXXXXXXXXXX",
"++ooOOOOoXXXXXXXXXXXXXXXXXXXXXXX",
" oooOOOOoXXXXXXXXXXXXXXXXXXXXXXX",
"  oOOOOOooXXXXXXXXXXXXXXXXXXXXXX",
"    OOOOooXXXXXXXXXXXXXXXXXXXXXX",
"     OOOooXXXXXXXXXXXXXXXXXXXXXX",
"      OOOoXXXXXXXXXXXXXXXXXXXXXX",
"       OOoXXXXXXXXXXXXXXXXXXXXXX",
"        OooXXXXXXXXXXXXXXXXXXXXX",
"         ooXXX++XXXXXXXXXXXXXXXX",
"         ooXXX++XXXXXXXXXXXXXX  ",
"          ooX+++XXXXXXXX        ",
"            o++XXX              "
};
